<svg width="64" height="64" viewBox="0 0 64 64" fill="none" xmlns="http://www.w3.org/2000/svg">
<path d="M32 0C14.3543 0 0 14.3543 0 32C0 41.952 4.48914 51.1406 12.3017 57.2023C16.8 60.7406 22.1531 62.9943 27.744 63.7074C29.1291 63.904 30.5646 64 32 64C33.4354 64 34.8709 63.904 36.2194 63.712C41.8469 62.9943 47.2 60.7451 51.6891 57.2114C59.5154 51.1406 64 41.9474 64 32C64 14.3543 49.6411 0 32 0ZM50.2857 52.3794V49.28C50.2857 44.8 42.1029 41.1429 32 41.1429C21.8971 41.1429 13.7143 44.8 13.7143 49.28V52.3794C7.904 47.2091 4.57143 39.8994 4.57143 32C4.57143 16.8731 16.8731 4.57143 32 4.57143C47.1269 4.57143 59.4286 16.8731 59.4286 32C59.4286 39.8949 56.1006 47.1954 50.2857 52.3794Z" fill="#949494"/>
<path d="M32 36.5714C38.3118 36.5714 43.4286 31.4547 43.4286 25.1429C43.4286 18.831 38.3118 13.7143 32 13.7143C25.6882 13.7143 20.5714 18.831 20.5714 25.1429C20.5714 31.4547 25.6882 36.5714 32 36.5714Z" fill="#949494"/>
</svg>
