<svg width="64" height="64" viewBox="0 0 64 64" fill="none" xmlns="http://www.w3.org/2000/svg">
<path d="M64 32C64 49.6731 49.6731 64 32 64C14.3269 64 0 49.6731 0 32C0 14.3269 14.3269 0 32 0C49.6731 0 64 14.3269 64 32Z" fill="#949494"/>
<path d="M43.7468 25.9241C43.7468 32.1879 38.4876 37.2658 32 37.2658C25.5124 37.2658 20.2532 32.1879 20.2532 25.9241C20.2532 19.6602 25.5124 14.5823 32 14.5823C38.4876 14.5823 43.7468 19.6602 43.7468 25.9241Z" fill="white"/>
<path d="M49.1515 53.0335C44.4767 56.8502 38.5056 59.1392 32 59.1392C25.4944 59.1392 19.5233 56.8502 14.8485 53.0335C16.1912 45.9017 22.4528 40.5063 29.9747 40.5063H34.0253C41.5472 40.5063 47.8088 45.9017 49.1515 53.0335Z" fill="white"/>
</svg>
