<svg width="200" height="200" viewBox="0 0 200 200" fill="none" xmlns="http://www.w3.org/2000/svg">
<g clip-path="url(#clip0_31_2)">
<path d="M100 200C155.228 200 200 155.228 200 100C200 44.7715 155.228 0 100 0C44.7715 0 0 44.7715 0 100C0 155.228 44.7715 200 100 200Z" fill="#003148"/>
<path fill-rule="evenodd" clip-rule="evenodd" d="M76.5395 66.8063C76.5395 59.0769 82.8112 52.8053 90.5406 52.8053H109.468C117.197 52.8053 123.469 59.0769 123.469 66.8063V76.5309H133.194C140.923 76.5309 147.195 82.8025 147.195 90.532V109.459C147.195 117.189 140.923 123.46 133.194 123.46H123.469V133.185C123.469 140.914 117.197 147.186 109.468 147.186H90.5406C82.8112 147.186 76.5395 140.914 76.5395 133.185V123.46H66.8149C59.0855 123.46 52.8139 117.189 52.8139 109.459V90.532C52.8139 82.8026 59.0855 76.5309 66.8149 76.5309H76.5395V66.8063ZM90.5406 60.0752C86.8262 60.0752 83.8095 63.092 83.8095 66.8063V80.1659C83.8095 82.1734 82.182 83.8009 80.1745 83.8009H66.8149C63.1006 83.8009 60.0838 86.8176 60.0838 90.532V109.459C60.0838 113.174 63.1006 116.191 66.8149 116.191H80.1745C82.182 116.191 83.8095 117.818 83.8095 119.825V133.185C83.8095 136.899 86.8262 139.916 90.5406 139.916H109.468C113.182 139.916 116.199 136.899 116.199 133.185V119.825C116.199 117.818 117.827 116.191 119.834 116.191H133.194C136.908 116.191 139.925 113.174 139.925 109.459V90.532C139.925 86.8176 136.908 83.8009 133.194 83.8009H119.834C117.827 83.8009 116.199 82.1734 116.199 80.1659V66.8063C116.199 63.092 113.182 60.0752 109.468 60.0752H90.5406Z" fill="white"/>
</g>
<defs>
<clipPath id="clip0_31_2">
<rect width="200" height="200" fill="white"/>
</clipPath>
</defs>
</svg>
