<svg width="200" height="200" viewBox="0 0 200 200" fill="none" xmlns="http://www.w3.org/2000/svg">
<g clip-path="url(#clip0_31_5)">
<path d="M100 200C155.228 200 200 155.228 200 100C200 44.7715 155.228 0 100 0C44.7715 0 0 44.7715 0 100C0 155.228 44.7715 200 100 200Z" fill="#003148"/>
<path fill-rule="evenodd" clip-rule="evenodd" d="M90.5149 59.8615C89.5375 59.8615 88.7445 60.6545 88.7445 61.6319V68.471C88.7501 68.554 88.753 68.6378 88.753 68.7222C88.753 68.8067 88.7501 68.8905 88.7445 68.9735V71.2111C88.7445 71.6023 89.0624 71.921 89.4544 71.921H105.799C106.19 71.921 106.509 71.603 106.509 71.2111V61.6319C106.509 60.6545 105.716 59.8615 104.738 59.8615H90.5149ZM113.779 65.0873V61.6319C113.779 56.6394 109.731 52.5916 104.738 52.5916H90.5149C85.5224 52.5916 81.4745 56.6394 81.4745 61.6319V65.0873H74.0165C67.2022 65.0873 61.6747 70.6148 61.6747 77.4291V135.058C61.6747 141.872 67.2022 147.4 74.0165 147.4H121.245C123.196 147.4 125.047 146.944 126.692 146.135C128.385 146.63 130.177 146.895 132.03 146.895H135.152C135.155 146.895 135.158 146.895 135.161 146.895C145.65 146.891 154.14 138.387 154.14 127.908V123.709C154.14 115.03 147.107 107.997 138.428 107.997H136.905C136.933 107.419 137.011 106.806 137.166 106.195C137.451 105.073 137.98 104.015 138.912 103.14C139.838 102.272 141.386 101.372 144.063 100.926C146.043 100.596 147.381 98.7227 147.051 96.7425C146.721 94.7623 144.848 93.4246 142.868 93.7546C139.513 94.3138 136.842 95.476 134.788 97.1046C134.427 96.5773 134.025 96.0801 133.587 95.6174V77.4291C133.587 70.6148 128.06 65.0873 121.245 65.0873H113.779ZM113.697 72.3572C113.141 76.2146 109.824 79.1909 105.799 79.1909H89.4544C85.4444 79.1909 82.1125 76.2274 81.5562 72.3572H74.0165C71.2173 72.3572 68.9446 74.6299 68.9446 77.4291V135.058C68.9446 137.857 71.2173 140.13 74.0165 140.13H117.498C114.718 136.828 113.043 132.565 113.043 127.908V123.709C113.043 118.704 115.382 114.247 119.026 111.37C116.333 109.152 114.617 105.792 114.617 102.036V91.8406H124.812C125.322 91.8406 125.824 91.8722 126.317 91.9334V77.4291C126.317 74.6299 124.045 72.3572 121.245 72.3572H113.697ZM133.513 115.267H128.755C124.091 115.267 120.313 119.045 120.313 123.709V127.908C120.313 132.772 123.274 136.94 127.49 138.714C127.604 138.753 127.717 138.798 127.827 138.849C129.132 139.351 130.549 139.625 132.03 139.625H135.152C141.628 139.625 146.87 134.378 146.87 127.908V123.709C146.87 119.045 143.092 115.267 138.428 115.267H133.673C133.62 115.268 133.566 115.268 133.513 115.267ZM136.897 108.835C136.903 109.037 136.914 109.232 136.928 109.416C136.964 109.862 137.019 110.222 137.061 110.456C137.083 110.573 137.1 110.656 137.11 110.701C137.114 110.715 137.116 110.726 137.118 110.732L137.116 110.726M136.897 108.835V108.204V108.835ZM129.627 106.851V103.926C129.627 101.27 127.472 99.1105 124.812 99.1105H121.887V102.036C121.887 104.692 124.042 106.851 126.702 106.851H129.627Z" fill="white"/>
</g>
<defs>
<clipPath id="clip0_31_5">
<rect width="200" height="200" fill="white"/>
</clipPath>
</defs>
</svg>
