<svg width="200" height="200" viewBox="0 0 200 200" fill="none" xmlns="http://www.w3.org/2000/svg">
<g clip-path="url(#clip0_31_15)">
<path d="M100 200C155.228 200 200 155.228 200 100C200 44.7715 155.228 0 100 0C44.7715 0 0 44.7715 0 100C0 155.228 44.7715 200 100 200Z" fill="#003148"/>
<path fill-rule="evenodd" clip-rule="evenodd" d="M97.6052 37.9662C99.6127 37.9662 101.24 39.5936 101.24 41.6012V46.78C101.302 47.0451 101.334 47.3214 101.334 47.6053C101.334 47.8891 101.302 48.1654 101.24 48.4305V52.8482C101.24 54.8557 99.6127 56.4831 97.6052 56.4831C95.5976 56.4831 93.9702 54.8557 93.9702 52.8482V51.2402H92.5846C88.1031 51.2402 84.8735 55.5449 86.1273 59.8446L95.4327 91.7722C96.517 95.4896 98.8593 98.5791 101.916 100.631C101.978 100.669 102.039 100.71 102.099 100.752C104.65 102.414 107.682 103.361 110.888 103.361H115.096C122.255 103.361 128.548 98.6376 130.551 91.7722L139.856 59.8451C141.11 55.5454 137.88 51.2402 133.399 51.2402H132.013V52.8482C132.013 54.8557 130.386 56.4831 128.378 56.4831C126.371 56.4831 124.743 54.8557 124.743 52.8482V48.4305C124.682 48.1654 124.649 47.8891 124.649 47.6053C124.649 47.3214 124.682 47.0451 124.743 46.78V41.6012C124.743 39.5936 126.371 37.9662 128.378 37.9662C130.386 37.9662 132.013 39.5936 132.013 41.6012V43.9703H133.399C142.722 43.9703 149.447 52.9222 146.836 61.8793C146.836 61.8795 146.836 61.8791 146.836 61.8793L137.53 93.8071C135.89 99.4288 132.269 104.062 127.558 107.032L116.627 128.713V133.827C116.627 144.046 108.344 152.318 98.1354 152.318H97.2716C87.052 152.318 78.7803 144.035 78.7803 133.827V109.391C78.7803 103.189 73.755 98.1697 67.559 98.1697C61.3571 98.1697 56.3376 103.195 56.3376 109.391V118.203C64.1111 119.878 69.9367 126.792 69.9367 135.067C69.9367 144.594 62.2131 152.318 52.6856 152.318C43.158 152.318 35.4344 144.594 35.4344 135.067C35.4344 126.78 41.2771 119.858 49.0677 118.196V109.391C49.0677 99.1827 57.3393 90.8998 67.559 90.8998C77.7673 90.8998 86.0503 99.1715 86.0503 109.391V133.827C86.0503 140.023 91.0698 145.048 97.2716 145.048H98.1354C104.331 145.048 109.357 140.028 109.357 133.827V128.765L97.2146 106.215C93.0962 103.244 89.9498 98.9376 88.4536 93.8078L79.1481 61.8798C79.148 61.8796 79.1481 61.88 79.1481 61.8798C76.5364 52.9227 83.262 43.9703 92.5846 43.9703H93.9702V41.6012C93.9702 39.5936 95.5976 37.9662 97.6052 37.9662ZM107.735 110.419L112.886 119.984L117.673 110.49C116.825 110.583 115.965 110.631 115.096 110.631H110.888C109.822 110.631 108.769 110.559 107.735 110.419ZM52.6856 125.086C47.1731 125.086 42.7044 129.554 42.7044 135.067C42.7044 140.579 47.1731 145.048 52.6856 145.048C58.198 145.048 62.6667 140.579 62.6667 135.067C62.6667 129.554 58.198 125.086 52.6856 125.086Z" fill="white"/>
</g>
<defs>
<clipPath id="clip0_31_15">
<rect width="200" height="200" fill="white"/>
</clipPath>
</defs>
</svg>
