<svg width="200" height="200" viewBox="0 0 200 200" fill="#2F9F41" xmlns="http://www.w3.org/2000/svg">
<g clip-path="url(#clip0_33_7)">
<path fill-rule="evenodd" clip-rule="evenodd" d="M200 100C200 155.228 155.228 200 100 200C44.7715 200 0 155.228 0 100C0 44.7715 44.7715 0 100 0C155.228 0 200 44.7715 200 100ZM136.402 78.2425C136.402 84.4817 131.344 89.5396 125.105 89.5396C118.866 89.5396 113.808 84.4817 113.808 78.2425C113.808 72.0033 118.866 66.9454 125.105 66.9454C131.344 66.9454 136.402 72.0033 136.402 78.2425ZM74.8957 89.5396C81.1349 89.5396 86.1928 84.4817 86.1928 78.2425C86.1928 72.0033 81.1349 66.9454 74.8957 66.9454C68.6565 66.9454 63.5986 72.0033 63.5986 78.2425C63.5986 84.4817 68.6565 89.5396 74.8957 89.5396ZM51.041 118.543C53.9624 116.698 57.8238 117.561 59.6818 120.47C59.6892 120.481 59.7104 120.513 59.7437 120.563C59.8104 120.66 59.9287 120.83 60.0997 121.063C60.442 121.528 60.993 122.238 61.7598 123.113C63.2964 124.868 65.6778 127.261 68.9589 129.666C75.4744 134.443 85.6024 139.33 99.9999 139.33C114.397 139.33 124.525 134.443 131.041 129.666C134.322 127.261 136.703 124.868 138.239 123.113C139.007 122.238 139.557 121.528 139.9 121.063C140.071 120.83 140.189 120.66 140.256 120.563C140.274 120.535 140.289 120.513 140.3 120.497C140.308 120.484 140.314 120.475 140.317 120.47C142.176 117.561 146.037 116.698 148.958 118.543C151.889 120.394 152.763 124.271 150.912 127.201C150.912 127.201 150.991 127.084 150.815 127.352C150.769 127.423 150.708 127.514 150.632 127.624C150.482 127.845 150.274 128.143 150.007 128.505C149.473 129.23 148.702 130.219 147.682 131.383C145.646 133.708 142.6 136.755 138.462 139.789C130.14 145.891 117.465 151.883 99.9999 151.883C82.5342 151.883 69.8593 145.891 61.537 139.789C57.3992 136.755 54.3532 133.708 52.3169 131.383C51.2973 130.219 50.5256 129.23 49.9919 128.505C49.7248 128.143 49.5168 127.845 49.3664 127.624C49.2913 127.514 49.2305 127.423 49.184 127.352L49.1249 127.261L49.1032 127.227L49.0944 127.213L49.0869 127.201C47.2356 124.271 48.1105 120.394 51.041 118.543Z"/>
</g>
<defs>
<clipPath id="clip0_33_7">
<rect width="200" height="200" fill="white"/>
</clipPath>
</defs>
</svg>
