<svg width="64" height="50" viewBox="0 0 64 50" fill="none" xmlns="http://www.w3.org/2000/svg">
<path d="M42.8379 10.4246C42.8379 16.182 38.004 20.8492 32.041 20.8492C26.078 20.8492 21.2441 16.182 21.2441 10.4246C21.2441 4.66726 26.078 0 32.041 0C38.004 0 42.8379 4.66726 42.8379 10.4246Z" fill="#01344C"/>
<path d="M47.8359 45.1926C43.2391 48.0141 37.8301 49.641 32.041 49.641C26.252 49.641 20.8429 48.0141 16.2462 45.1926V38.8103C16.2462 30.8347 22.7116 24.3692 30.6872 24.3692H33.3949C41.3704 24.3692 47.8359 30.8347 47.8359 38.8103V45.1926Z" fill="#01344C"/>
<path d="M60.7286 14.9465C60.7286 18.7149 57.5645 21.7698 53.6615 21.7698C49.7585 21.7698 46.5944 18.7149 46.5944 14.9465C46.5944 11.178 49.7585 8.12308 53.6615 8.12308C57.5645 8.12308 60.7286 11.178 60.7286 14.9465Z" fill="#01344C"/>
<path d="M17.4055 14.9465C17.4055 18.7149 14.2415 21.7698 10.3384 21.7698C6.43539 21.7698 3.27135 18.7149 3.27135 14.9465C3.27135 11.178 6.43539 8.12308 10.3384 8.12308C14.2415 8.12308 17.4055 11.178 17.4055 14.9465Z" fill="#01344C"/>
<path d="M17.5486 26.5009C15.8737 24.9921 13.6564 24.0738 11.2246 24.0738H9.45231C4.23194 24.0738 0 28.3058 0 33.5262V40.4114C3.0088 42.2582 6.54927 43.3231 10.3385 43.3231C11.1155 43.3231 11.8822 43.2783 12.6359 43.1912V39.326C12.6359 34.3516 14.5051 29.8342 17.5486 26.5009Z" fill="#01344C"/>
<path d="M51.4462 43.2005C52.1734 43.2815 52.9126 43.3231 53.6615 43.3231C57.4507 43.3231 60.9912 42.2582 64 40.4114V33.5262C64 28.3058 59.7681 24.0738 54.5477 24.0738H52.7754C50.3654 24.0738 48.166 24.9758 46.4965 26.4605C49.5618 29.7977 51.4462 34.3315 51.4462 39.326V43.2005Z" fill="#01344C"/>
</svg>
