<svg width="32" height="32" viewBox="0 0 32 32" fill="none" xmlns="http://www.w3.org/2000/svg">
<path d="M15.572 0.00653498C8.58576 0.221462 2.85741 5.81495 2.54023 12.7329C2.25557 18.9578 6.27328 24.2933 11.8932 26.0745L14.0159 30.725C14.7912 32.4256 17.2284 32.4256 18.0038 30.7223L20.1211 26.0692C25.5458 24.3444 29.474 19.3043 29.474 13.3535C29.474 5.83913 23.2089 -0.227199 15.572 0.00653498ZM20.6172 14.5813H17.5375V17.6306C17.5375 18.4715 16.8489 19.1539 16.0004 19.1539C15.1518 19.1539 14.4632 18.4715 14.4632 17.6306V14.5813H11.3862C10.5377 14.5813 9.84909 13.8989 9.84909 13.058C9.84909 12.2171 10.5377 11.5347 11.3862 11.5347H14.4632V8.48542C14.4632 7.64452 15.1518 6.96212 16.0004 6.96212C16.8489 6.96212 17.5375 7.64452 17.5375 8.48542V11.5347H20.6172C21.4657 11.5347 22.1516 12.2171 22.1516 13.058C22.1516 13.8989 21.4657 14.5813 20.6172 14.5813Z" fill="#003148"/>
</svg>
