<svg width="192" height="192" viewBox="0 0 192 192" fill="none" xmlns="http://www.w3.org/2000/svg">
<g clip-path="url(#clip0_51_17)">
<path d="M179.224 143.842C187.345 129.754 192.012 113.425 192.012 96.0062C192 42.983 149.017 0 96.0062 0C42.9954 0 0 42.983 0 96.0062C0 149.029 42.983 192.012 96.0062 192.012C113.759 192.012 130.385 187.172 144.659 178.766L180.858 191.53C187.419 193.845 193.77 187.605 191.579 181.007L179.236 143.855L179.224 143.842Z" fill="#01344C"/>
<path d="M44.4686 122.846C41.0765 122.846 38.3281 120.098 38.3281 116.705V80.0361C38.3281 76.644 41.0765 73.8957 44.4686 73.8957C47.8607 73.8957 50.609 76.644 50.609 80.0361V116.705C50.609 120.098 47.8607 122.846 44.4686 122.846Z" fill="white"/>
<path d="M98.346 123.069H66.7772C64.3755 123.069 62.1843 121.67 61.1939 119.479C60.1911 117.287 60.5625 114.725 62.1348 112.905L85.508 85.929H67.3838C63.9918 85.929 61.2434 83.1807 61.2434 79.7886C61.2434 76.3965 63.9918 73.6481 67.3838 73.6481H98.9526C101.354 73.6481 103.546 75.0471 104.536 77.2383C105.539 79.4295 105.167 81.9922 103.595 83.812L80.2218 110.788H98.346C101.738 110.788 104.486 113.536 104.486 116.928C104.486 120.32 101.738 123.069 98.346 123.069Z" fill="white"/>
<path d="M44.481 66.1954C48.0022 66.1954 50.8567 63.3409 50.8567 59.8197C50.8567 56.2986 48.0022 53.4441 44.481 53.4441C40.9598 53.4441 38.1053 56.2986 38.1053 59.8197C38.1053 63.3409 40.9598 66.1954 44.481 66.1954Z" fill="white"/>
<path d="M153.437 123.688C150.045 123.688 147.296 120.939 147.296 117.547V98.3584C147.296 91.1657 141.44 85.31 134.248 85.31C127.055 85.31 121.199 91.1657 121.199 98.3584C121.199 105.551 127.055 111.407 134.248 111.407C137.64 111.407 140.388 114.155 140.388 117.547C140.388 120.939 137.64 123.688 134.248 123.688C120.283 123.688 108.918 112.323 108.918 98.3584C108.918 84.3939 120.283 73.0291 134.248 73.0291C148.212 73.0291 159.577 84.3939 159.577 98.3584V117.547C159.577 120.939 156.829 123.688 153.437 123.688Z" fill="white"/>
</g>
<defs>
<clipPath id="clip0_51_17">
<rect width="192" height="192" fill="white"/>
</clipPath>
</defs>
</svg>
