<svg width="512" height="512" viewBox="0 0 512 512" fill="none" xmlns="http://www.w3.org/2000/svg">
<g clip-path="url(#clip0_51_2)">
<path d="M477.93 383.579C499.587 346.01 512.033 302.466 512.033 256.016C512 114.621 397.379 0 256.016 0C114.654 0 0 114.621 0 256.016C0 397.412 114.621 512.033 256.016 512.033C303.357 512.033 347.694 499.125 385.758 476.709L482.288 510.745C499.785 516.919 516.721 500.28 510.878 482.684L477.963 383.612L477.93 383.579Z" fill="#01344C"/>
<path d="M118.583 327.589C109.537 327.589 102.209 320.26 102.209 311.214V213.43C102.209 204.384 109.537 197.055 118.583 197.055C127.629 197.055 134.958 204.384 134.958 213.43V311.214C134.958 320.26 127.629 327.589 118.583 327.589Z" fill="white"/>
<path d="M262.256 328.183H178.073C171.668 328.183 165.825 324.453 163.184 318.609C160.51 312.766 161.5 305.932 165.693 301.079L228.021 229.144H179.69C170.645 229.144 163.316 221.815 163.316 212.769C163.316 203.724 170.645 196.395 179.69 196.395H263.874C270.278 196.395 276.122 200.125 278.763 205.969C281.437 211.812 280.446 218.646 276.254 223.499L213.925 295.434H262.256C271.302 295.434 278.631 302.763 278.631 311.809C278.631 320.854 271.302 328.183 262.256 328.183Z" fill="white"/>
<path d="M118.616 176.521C128.006 176.521 135.618 168.909 135.618 159.519C135.618 150.129 128.006 142.518 118.616 142.518C109.226 142.518 101.614 150.129 101.614 159.519C101.614 168.909 109.226 176.521 118.616 176.521Z" fill="white"/>
<path d="M409.164 329.834C400.119 329.834 392.79 322.505 392.79 313.459V262.289C392.79 243.108 377.175 227.493 357.994 227.493C338.813 227.493 323.198 243.108 323.198 262.289C323.198 281.47 338.813 297.085 357.994 297.085C367.04 297.085 374.368 304.414 374.368 313.459C374.368 322.505 367.04 329.834 357.994 329.834C320.755 329.834 290.449 299.528 290.449 262.289C290.449 225.05 320.755 194.744 357.994 194.744C395.233 194.744 425.539 225.05 425.539 262.289V313.459C425.539 322.505 418.21 329.834 409.164 329.834Z" fill="white"/>
</g>
<defs>
<clipPath id="clip0_51_2">
<rect width="512" height="512" fill="white"/>
</clipPath>
</defs>
</svg>
